<svg id="Capa_1" enable-background="new 0 0 512 512" height="512" viewBox="0 0 512 512" width="512" xmlns="http://www.w3.org/2000/svg"><g><path d="m437.02 74.98c-48.353-48.351-112.64-74.98-181.02-74.98s-132.667 26.629-181.02 74.98c-48.351 48.353-74.98 112.64-74.98 181.02s26.629 132.667 74.98 181.02c48.353 48.351 112.64 74.98 181.02 74.98s132.667-26.629 181.02-74.98c48.351-48.353 74.98-112.64 74.98-181.02s-26.629-132.667-74.98-181.02zm-21.214 340.826c-42.686 42.686-99.439 66.194-159.806 66.194s-117.12-23.508-159.806-66.194-66.194-99.439-66.194-159.806 23.508-117.12 66.194-159.806 99.439-66.194 159.806-66.194 117.12 23.508 159.806 66.194 66.194 99.439 66.194 159.806-23.508 117.12-66.194 159.806z"/><path d="m256 271.552c-65.876 0-119.471 53.595-119.471 119.471h30c0-49.334 40.137-89.471 89.471-89.471s89.471 40.137 89.471 89.471h30c0-65.877-53.595-119.471-119.471-119.471z"/><path d="m214.773 158.594h-30c0 14.009-11.397 25.406-25.406 25.406s-25.406-11.397-25.406-25.406h-30c0 30.551 24.855 55.406 55.406 55.406s55.406-24.855 55.406-55.406z"/><path d="m352.633 184c-14.009 0-25.406-11.397-25.406-25.406h-30c0 30.551 24.855 55.406 55.406 55.406s55.406-24.855 55.406-55.406h-30c0 14.009-11.397 25.406-25.406 25.406z"/></g></svg>