<!-- <svg id="Capa_1" enable-background="new 0 0 497 497" height="512" viewBox="0 0 497 497" width="512" xmlns="http://www.w3.org/2000/svg"><g><path d="m140.704 314.402h45v60h-45z" fill="#a4bde0" transform="matrix(.707 .707 -.707 .707 291.331 -14.53)"/><path d="m132.294 298.492h30v60h-30z" fill="#b0d0ff" transform="matrix(.707 .707 -.707 .707 275.421 -7.94)"/><path d="m80.766 479.296c.006.006 66.528-87.164 66.528-87.164l-21.213-42.426-112.901 134.114c17.574 17.574 46.066 17.574 63.64 0 1.437-1.437 2.744-2.953 3.946-4.524z" fill="#8d6ed1"/><path d="m55.607 462.607c1.437-1.437 2.744-2.953 3.946-4.524.006.006 66.528-87.164 66.528-87.164v-21.213h-21.213l-87.169 66.523c-1.565 1.208-3.081 2.515-4.518 3.952-17.574 17.574-17.574 46.066 0 63.64 5.857 5.857 24.852-3.641 42.426-21.214z" fill="#a381e6"/><circle cx="317" cy="180" fill="#a4bde0" r="180"/><path d="m210.934 328.492-21.213-21.213-21.213 21.213 21.213 21.213c5.858 5.858 15.355 5.858 21.213 0 5.858-5.857 5.858-15.355 0-21.213z" fill="#b0d0ff"/><path d="m189.721 328.492c5.858-5.858 5.858-15.355 0-21.213l-21.213-21.213c-5.858-5.858-15.355-5.858-21.213 0s-5.858 15.355 0 21.213l21.213 21.213c5.858 5.858 15.355 5.858 21.213 0z" fill="#c4e3fa"/><path d="m168.508 370.919-21.213-21.213-21.213 21.213 21.213 21.213c5.858 5.858 15.355 5.858 21.213 0s5.858-15.355 0-21.213z" fill="#b0d0ff"/><path d="m147.294 370.919c5.858-5.858 5.858-15.355 0-21.213l-21.213-21.213c-5.858-5.858-15.355-5.858-21.213 0s-5.858 15.355 0 21.213l21.213 21.213c5.858 5.858 15.356 5.858 21.213 0z" fill="#c4e3fa"/><path d="m423.066 73.934-212.132 212.132c58.579 58.579 153.554 58.579 212.132 0 58.579-58.579 58.579-153.553 0-212.132z" fill="#e3f5ff"/><path d="m401.853 264.853c58.579-58.579 68.076-144.056 21.213-190.919-58.579-58.579-153.553-58.579-212.132 0s-58.579 153.553 0 212.132c46.863 46.863 132.34 37.365 190.919-21.213z" fill="#fff"/></g></svg> -->
<svg height="512" viewBox="0 0 497 497" width="512" xmlns="http://www.w3.org/2000/svg"><path d="M168.53 307.23l31.81 31.81-42.42 42.42-31.81-31.81z" fill="#a4bde0"/><path d="M157.92 296.63l21.2 21.2-42.41 42.43-21.21-21.21z" fill="#b0d0ff"/><path d="M80.77 479.3l66.52-87.17-21.2-42.42L13.17 483.82a45 45 0 0067.59-4.52z" fill="#8d6ed1"/><path d="M55.6 462.6a45.35 45.35 0 003.95-4.52l66.53-87.16V349.7h-21.21L17.7 416.23a45 45 0 00-4.52 67.6c5.86 5.85 24.85-3.65 42.43-21.22z" fill="#a381e6"/><circle cx="317" cy="180" fill="#a4bde0" r="180"/><path d="M210.93 328.5l-21.2-21.22-21.22 21.21 21.21 21.22a15 15 0 1021.21-21.22z" fill="#b0d0ff"/><path d="M189.72 328.5a15 15 0 000-21.22l-21.21-21.21a15 15 0 10-21.21 21.2l21.2 21.22a15 15 0 0021.22 0z" fill="#c4e3fa"/><path d="M168.5 370.92l-21.2-21.21-21.22 21.2 21.22 21.22a15 15 0 1021.2-21.21z" fill="#b0d0ff"/><path d="M147.3 370.92a15 15 0 000-21.21l-21.22-21.22a15 15 0 10-21.21 21.22l21.21 21.2a15 15 0 0021.21 0z" fill="#c4e3fa"/><path d="M423.07 73.93L210.93 286.07c58.58 58.58 153.56 58.58 212.14 0 58.57-58.58 58.57-153.56 0-212.14z" fill="#e3f5ff"/><path d="M401.85 264.85c58.58-58.58 68.08-144.05 21.22-190.92-58.58-58.58-153.56-58.58-212.14 0s-58.57 153.56 0 212.14c46.87 46.86 132.34 37.36 190.92-21.22z" fill="#fff"/></svg>